<svg xmlns="http://www.w3.org/2000/svg" xmlns:xlink="http://www.w3.org/1999/xlink" contentStyleType="text/css" data-diagram-type="CLASS" height="130px" preserveAspectRatio="none" style="width:208px;height:130px;background:#FFFFFF;" version="1.1" viewBox="0 0 208 130" width="208px" zoomAndPan="magnify"><defs/><g><!--class it.unimi.di.prog2.h04.SommaListBoxing--><g class="entity" data-entity="it.unimi.di.prog2.h04.SommaListBoxing" data-source-line="13" data-uid="ent0002" id="entity_it.unimi.di.prog2.h04.SommaListBoxing"><a href="SommaListBoxing.html" target="_top" title="SommaListBoxing.html" xlink:actuate="onRequest" xlink:href="SommaListBoxing.html" xlink:show="new" xlink:title="SommaListBoxing.html" xlink:type="simple"><rect fill="#F1F1F1" height="88.8237" rx="2.5" ry="2.5" style="stroke:#181818;stroke-width:0.5;" width="195.6794" x="6" y="12"/><ellipse cx="41.2193" cy="33.344" fill="#ADD1B2" rx="11" ry="11" style="stroke:#181818;stroke-width:1;"/><path d="M44.1881,38.9846 Q43.6099,39.2815 42.9693,39.4221 Q42.3287,39.5783 41.6256,39.5783 Q39.1256,39.5783 37.7974,37.9377 Q36.4849,36.2815 36.4849,33.1565 Q36.4849,30.0315 37.7974,28.3752 Q39.1256,26.719 41.6256,26.719 Q42.3287,26.719 42.9693,26.8752 Q43.6256,27.0315 44.1881,27.3283 L44.1881,30.0471 Q43.5631,29.469 42.9693,29.2033 Q42.3756,28.9221 41.7506,28.9221 Q40.4068,28.9221 39.7193,30.0002 Q39.0318,31.0627 39.0318,33.1565 Q39.0318,35.2502 39.7193,36.3283 Q40.4068,37.3908 41.7506,37.3908 Q42.3756,37.3908 42.9693,37.1252 Q43.5631,36.844 44.1881,36.2658 L44.1881,38.9846 Z " fill="#000000"/><text fill="#000000" font-family="sans-serif" font-size="14" lengthAdjust="spacing" textLength="118.7476" x="59.7125" y="31.9659">SommaListBoxing</text><text fill="#000000" font-family="sans-serif" font-size="10" lengthAdjust="spacing" textLength="98.3299" x="69.9213" y="46.7579">it.unimi.di.prog2.h04</text><line style="stroke:#181818;stroke-width:0.5;" x1="7" x2="200.6794" y1="54.6879" y2="54.6879"/><polygon fill="#4177AF" points="17,65.7219,13,71.7219,21,71.7219" style="stroke:#1963A0;stroke-width:1;"/><text fill="#000000" font-family="sans-serif" font-size="14" lengthAdjust="spacing" text-decoration="underline" textLength="169.6794" x="26" y="73.6538">somma(List&lt;Integer&gt;): int</text><ellipse cx="17" cy="88.7898" fill="#84BE84" rx="3" ry="3" style="stroke:#038048;stroke-width:1;"/><text fill="#000000" font-family="sans-serif" font-size="14" lengthAdjust="spacing" text-decoration="underline" textLength="125.4115" x="26" y="92.7218">main(String[]): void</text></a></g><g class="footer" data-source-line="24"><text fill="#888888" font-family="sans-serif" font-size="10" lengthAdjust="spacing" textLength="2.6" x="99.2" y="105.69">&#160;</text><a href="https://github.com/talsma-ict/umldoclet" target="_top" title="https://github.com/talsma-ict/umldoclet" xlink:actuate="onRequest" xlink:href="https://github.com/talsma-ict/umldoclet" xlink:show="new" xlink:title="https://github.com/talsma-ict/umldoclet" xlink:type="simple"><text fill="#888888" font-family="sans-serif" font-size="10" lengthAdjust="spacing" textLength="76.7199" x="62.14" y="119.31">UMLDoclet 2.2.3</text></a></g><!--SRC=[RL9TRnen47pFhzYc3oLACCUHbWyXf9HMRIegLO4y4HxCtN9dnVPUxJrQ6j7VNjz12QNno-bsnpEpwm40U0DZAZPEPJa34t2kFDn_dO2qAMHeqKd659IH6NfOeYQR-HqGGPQSamDQrNy9EOU-89igcy4NkPRWgNG9Ud5s1hNKx2_x3-cFs9URglY14eqCZV75aQKuQhzhnb7y5cPIUoFXTZmJUxRdEx68HGS2jrO9MXyeIvkYgstT5389dyckSmLhT5wH3NUYFKyrQaAMfR8U2kdOLoDzqz9ovRKjAdtHXSRDTFAljwXVUxk26sTbcS8TVIyFuxugdCo2OoqtL39uWoojtFLyC6sb2UkI2KunY4eEcxHaiUxdAaL0K_06LWfrwa-hWIodKAxhYPRUm_dGgryuQ5-FfcICd2ZFx-bdU8i7k-z48yMYjCeeaIfHECfYaKVNvn1UuyMEE662-Voa8d8sUh60fzf8TPuyIrR95dxx2jgeiCDRovYX6rqCG5d-7tjfml8RKtQ1Shu8g3Mfj8PjToCEFMyqZWutLqGS7lXPjZgVDmMwYRAFOz9XcwzxBtVlgsnePJ74CNcq67ON7P3RdLphI6-lzM3dyvovy8DMArESbqkHa6bndSkcIhXL6ftk0daIpSLY7xLFXynNkMcsesRKcRNxWxWxY3kYtOzx_Nwtrx-Cua4KpJ-MZWfitP71nHy0]--></g></svg>