<svg xmlns="http://www.w3.org/2000/svg" xmlns:xlink="http://www.w3.org/1999/xlink" contentStyleType="text/css" data-diagram-type="CLASS" height="84px" preserveAspectRatio="none" style="width:178px;height:84px;background:#FFFFFF;" version="1.1" viewBox="0 0 178 84" width="178px" zoomAndPan="magnify"><defs/><g><!--class it.unimi.di.prog2.e03.UguaglianzaFrazioni--><g class="entity" data-entity="it.unimi.di.prog2.e03.UguaglianzaFrazioni" data-source-line="13" data-uid="ent0002" id="entity_it.unimi.di.prog2.e03.UguaglianzaFrazioni"><a href="UguaglianzaFrazioni.html" target="_top" title="UguaglianzaFrazioni.html" xlink:actuate="onRequest" xlink:href="UguaglianzaFrazioni.html" xlink:show="new" xlink:title="UguaglianzaFrazioni.html" xlink:type="simple"><rect fill="#F1F1F1" height="42.6879" rx="2.5" ry="2.5" style="stroke:#181818;stroke-width:0.5;" width="165.9515" x="6" y="12"/><ellipse cx="21" cy="33.344" fill="#ADD1B2" rx="11" ry="11" style="stroke:#181818;stroke-width:1;"/><path d="M23.9688,38.9846 Q23.3906,39.2815 22.75,39.4221 Q22.1094,39.5783 21.4063,39.5783 Q18.9063,39.5783 17.5781,37.9377 Q16.2656,36.2815 16.2656,33.1565 Q16.2656,30.0315 17.5781,28.3752 Q18.9063,26.719 21.4063,26.719 Q22.1094,26.719 22.75,26.8752 Q23.4063,27.0315 23.9688,27.3283 L23.9688,30.0471 Q23.3438,29.469 22.75,29.2033 Q22.1563,28.9221 21.5313,28.9221 Q20.1875,28.9221 19.5,30.0002 Q18.8125,31.0627 18.8125,33.1565 Q18.8125,35.2502 19.5,36.3283 Q20.1875,37.3908 21.5313,37.3908 Q22.1563,37.3908 22.75,37.1252 Q23.3438,36.844 23.9688,36.2658 L23.9688,38.9846 Z " fill="#000000"/><text fill="#000000" font-family="sans-serif" font-size="14" lengthAdjust="spacing" textLength="133.9515" x="35" y="31.9659">UguaglianzaFrazioni</text><text fill="#000000" font-family="sans-serif" font-size="10" lengthAdjust="spacing" textLength="97.7899" x="53.0808" y="46.7579">it.unimi.di.prog2.e03</text></a></g><g class="footer" data-source-line="21"><text fill="#888888" font-family="sans-serif" font-size="10" lengthAdjust="spacing" textLength="2.6" x="84.2" y="59.69">&#160;</text><a href="https://github.com/talsma-ict/umldoclet" target="_top" title="https://github.com/talsma-ict/umldoclet" xlink:actuate="onRequest" xlink:href="https://github.com/talsma-ict/umldoclet" xlink:show="new" xlink:title="https://github.com/talsma-ict/umldoclet" xlink:type="simple"><text fill="#888888" font-family="sans-serif" font-size="10" lengthAdjust="spacing" textLength="76.7199" x="47.14" y="73.31">UMLDoclet 2.2.3</text></a></g><!--SRC=[RL9TRzCm57tVhxYC1uPO7SS1jbLJfQd001K9RUrJruVRv3QnvjZ17qCfuh_Z9AMKgNv9V8vzxZc-5m3W5KnDqrfPLXwy0Lz91ujlCq1TG4cQB7egGDPOaeCrAQDBDnmamE0hOy5i-brkh2NN65r8NS9NV49m9jYS73ivWRxK_A_wJtG7wkks0p-ON967i-dh0qk2f-z7WejtC4VbQeGlqpdRgVsx8vXW6KHj9NFIBae6NP3jRTqqcCVFR63EuOciaqR7EtodqqNDZVOejOC6hNTTfEyAjU-yfgohpoxWxEP-zhytVjLxEuSRgp4KS6T-X7tS5ut5CZfMs9hWmTNaKUF0kMXQOnsV2tEwfrWKVNn9RJJrV2KB0geRty96aYhSSpIALIR2FPuhT0vEhvtSqZXzErcK0KibKM_nayLjJ2iVz8xb4-bPqBAMh92iiQOKZ7Xs2h4ZHnbsH0sMooCegtojLgl1qxNphQ99_z-jZJ4-TkJN7kZMvxOXEvFwSMfKZF_oyZYxw9gffAOuF_cZfXYMxq_-7ieb1_LsjHxqSbbvtxXnafJILs7DSbCdlX-aaSnz4cfL31FqR9PYYc4sRlT3sZLwbF8Hp-RfrLXSZ4N6Kf69B1NfvHiknfmlFmPh6ahkJ4shFm00]--></g></svg>